<svg viewBox="240.5159 364.75 494.1259 117.5" width="5000" height="1188.9682366376667" xmlns="http://www.w3.org/2000/svg" xmlns:xlink="http://www.w3.org/1999/xlink" preserveAspectRatio="none"><defs></defs><style>.a6izo4zJpcolor {fill:#000000;fill-opacity:1;}.aIptOCySncolors-0 {fill:#000000;fill-opacity:0.9;}.akck6tHjVx0filter-floo {flood-color:#000000;flood-opacity:1;}.aKJRHp8f8H0filter-floo {flood-color:#000000;flood-opacity:1;}.companyName {fill:#000000;fill-opacity:1;}.shapeStroke-str {stroke:#3F3F3F;stroke-opacity:1;}</style><defs>
      <filter
        x="-1000"
        y="-1000"
        width="5000"
        height="5000"
        id="KJRHp8f8H"
        filterUnits="userSpaceOnUse"
        primitiveUnits="userSpaceOnUse"
        color-interpolation-filters="sRGB">
        <feMerge><feMergeNode in="SourceGraphic" /></feMerge>
      </filter>
      <filter
        x="-1000"
        y="-1000"
        width="5000"
        height="5000"
        id="kck6tHjVx"
        filterUnits="userSpaceOnUse"
        primitiveUnits="userSpaceOnUse"
        color-interpolation-filters="sRGB">
        <feMerge><feMergeNode in="SourceGraphic" /></feMerge>
      </filter></defs><g opacity="0.2" transform="rotate(22 274.9801 364.75)">
<svg width="60.6326" height="92.001" x="274.9801" y="364.75" version="1.1" preserveAspectRatio="none" viewBox="34.198001861572266 26.02300262451172 31.601993560791016 47.95099639892578">
  <g transform="matrix(-1 0 0 1 99.99799728393555 0)" class="aIptOCySncolors-0"><path d="M65.794,43.574c-0.003-0.076-0.018-0.152-0.058-0.223c-0.001-0.002-0.003-0.003-0.004-0.004  c-0.005-0.009-0.014-0.014-0.02-0.023c-0.04-0.06-0.089-0.107-0.147-0.144c-0.009-0.006-0.013-0.016-0.022-0.022l-7.394-4.127  v-8.237c0-0.084-0.026-0.159-0.062-0.228c-0.01-0.02-0.024-0.036-0.037-0.055c-0.035-0.05-0.077-0.091-0.127-0.125  c-0.012-0.008-0.017-0.022-0.03-0.029l-7.65-4.271c-0.152-0.084-0.336-0.084-0.488,0l-7.65,4.271  c-0.013,0.007-0.018,0.021-0.03,0.029c-0.05,0.034-0.092,0.075-0.127,0.125c-0.013,0.019-0.026,0.034-0.037,0.055  c-0.036,0.069-0.062,0.144-0.062,0.228v16.777l-7.394,4.127c-0.009,0.005-0.012,0.015-0.021,0.02  c-0.058,0.037-0.109,0.085-0.149,0.145c-0.005,0.008-0.014,0.013-0.019,0.022c-0.001,0.002-0.003,0.003-0.004,0.004  c-0.04,0.071-0.055,0.147-0.058,0.223c0,0.008-0.006,0.014-0.006,0.021v17.07c0,0.182,0.098,0.349,0.256,0.437l7.649,4.27  c0.007,0.004,0.015,0.002,0.022,0.006c0.068,0.034,0.141,0.058,0.222,0.058s0.155-0.024,0.222-0.058  c0.007-0.003,0.015-0.002,0.022-0.006L50,69.778l7.398,4.129c0.074,0.043,0.16,0.067,0.252,0.067s0.178-0.024,0.252-0.068  l7.642-4.265c0.158-0.088,0.256-0.255,0.256-0.437v-25.61C65.8,43.587,65.794,43.581,65.794,43.574z M57.15,39.032l-6.65,3.711  v-7.385l6.65-3.711V39.032z M42.85,72.623V56.699l6.65-3.712v15.924L42.85,72.623z M58.15,72.623V48.159l6.649-3.712v24.464  L58.15,72.623z"></path></g>
</svg>
</g><g opacity="1" transform="rotate(0 350.173 442.75)">
<svg width="252.7748" height="16.3956" x="350.173" y="442.75" version="1.1" preserveAspectRatio="none" viewBox="1.8343 -30.0207 614.8716000000001 39.8826">
  <g transform="matrix(1 0 0 1 0 0)" class="a6izo4zJpcolor"><path d="M34.47-23.70L34.90 2.13L29.78 2.22L29.50-14.46L20.76 1.53Q20.44 2.14 19.85 2.46Q19.26 2.78 18.58 2.79L18.58 2.79Q17.91 2.80 17.33 2.50Q16.75 2.20 16.41 1.60L16.41 1.60L7.11-14.09L7.38 2.59L2.30 2.67L1.88-23.16Q1.86-24.04 2.37-24.74Q2.87-25.43 3.71-25.68L3.71-25.68Q4.12-25.78 4.53-25.76Q4.94-25.74 5.32-25.60Q5.71-25.46 6.02-25.20Q6.34-24.94 6.56-24.57L6.56-24.57L18.45-4.67L29.68-24.95Q30.12-25.70 30.91-26.03Q31.69-26.35 32.55-26.15L32.55-26.15Q33.38-25.93 33.92-25.26Q34.46-24.58 34.47-23.70L34.47-23.70Z M65.80-12.44L65.91-5.31Q65.92-4.26 65.57-3.03Q65.21-1.81 64.40-0.75Q63.58 0.31 62.26 1.03Q60.93 1.75 59.01 1.78L59.01 1.78L49.86 1.91Q48.80 1.93 47.58 1.57Q46.35 1.22 45.29 0.41Q44.24-0.41 43.51-1.74Q42.79-3.06 42.76-4.98L42.76-4.98Q42.75-6.03 43.10-7.27Q43.45-8.50 44.27-9.56Q45.08-10.62 46.41-11.34Q47.74-12.06 49.65-12.09L49.65-12.09L58.81-12.22L58.88-7.38L49.72-7.25Q48.69-7.23 48.13-6.59Q47.57-5.95 47.59-5.01L47.59-5.01Q47.60-4.01 48.26-3.47Q48.93-2.92 49.82-2.93L49.82-2.93L58.94-3.06Q59.98-3.08 60.54-3.71Q61.09-4.34 61.08-5.28L61.08-5.28L60.98-12.37Q60.96-13.37 60.34-13.94Q59.72-14.52 58.78-14.51L58.78-14.51L47.63-14.35L47.56-19.17L58.71-19.33Q59.76-19.35 60.99-18.99Q62.22-18.64 63.27-17.82Q64.33-17.01 65.05-15.68Q65.77-14.35 65.80-12.44L65.80-12.44Z M87.12-10.12L99.22 1.25L91.89 1.34L81.54-8.41Q80.67-9.18 80.71-10.35L80.71-10.35Q80.74-10.90 80.98-11.38Q81.22-11.86 81.64-12.20L81.64-12.20L90.83-19.80L98.95-19.90L87.12-10.12ZM79.19-28.54L79.57 1.50L74.49 1.56L74.11-28.47L79.19-28.54Z M110.93-28.92L110.98-24.33L105.91-24.28L105.85-28.86L110.93-28.92ZM111.03-20.00L111.27 1.11L106.20 1.17L105.96-19.94L111.03-20.00Z M143.47-10.94L143.59 0.78L138.51 0.83L138.39-10.89Q138.38-11.89 138.03-12.67Q137.68-13.46 137.09-14.02Q136.50-14.58 135.70-14.88Q134.91-15.17 133.99-15.16L133.99-15.16L125.11-15.07L125.27 0.96L120.19 1.01L120.00-17.58Q120.00-18.11 120.19-18.57Q120.38-19.03 120.73-19.37Q121.07-19.72 121.54-19.92Q122.01-20.12 122.54-20.13L122.54-20.13L133.98-20.24Q134.94-20.25 136.00-20.05Q137.07-19.84 138.12-19.37Q139.17-18.91 140.12-18.18Q141.08-17.46 141.82-16.42Q142.56-15.39 143.01-14.02Q143.45-12.66 143.47-10.94L143.47-10.94Z M174.96-13.50L175.10 2.54Q175.11 3.85 174.78 4.90Q174.46 5.94 173.92 6.74Q173.38 7.53 172.66 8.10Q171.94 8.66 171.16 9.02Q170.37 9.38 169.56 9.55Q168.75 9.72 168.03 9.73L168.03 9.73L158.87 9.80L158.82 4.73L167.98 4.65Q169.02 4.64 169.52 4.11Q170.03 3.58 170.02 2.58L170.02 2.58L169.89-13.45Q169.88-14.45 169.37-14.96Q168.85-15.48 167.82-15.47L167.82-15.47L158.66-15.39Q157.72-15.38 157.18-14.80Q156.64-14.22 156.64-13.34L156.64-13.34L156.70-6.47Q156.71-5.47 157.24-4.95Q157.77-4.43 158.79-4.43L158.79-4.43L167.91-4.51L167.95 0.57L158.79 0.64Q158.07 0.65 157.27 0.49Q156.46 0.33 155.67-0.01Q154.88-0.36 154.15-0.91Q153.42-1.46 152.87-2.25Q152.32-3.03 151.97-4.08Q151.63-5.12 151.62-6.43L151.62-6.43L151.57-13.30Q151.56-14.02 151.72-14.83Q151.88-15.63 152.22-16.42Q152.57-17.22 153.12-17.94Q153.67-18.67 154.46-19.22Q155.24-19.78 156.28-20.12Q157.31-20.46 158.62-20.47L158.62-20.47L167.78-20.55Q168.50-20.55 169.31-20.39Q170.12-20.23 170.92-19.89Q171.71-19.54 172.44-18.99Q173.16-18.44 173.72-17.65Q174.27-16.87 174.61-15.84Q174.95-14.80 174.96-13.50L174.96-13.50Z M219.61-20.89L219.64-15.81L210.77-15.76L210.86 0.28L205.72 0.30L205.63-15.73L199.03-15.69L199.00-20.77L205.60-20.81L205.56-27.70L210.70-27.73L210.74-20.84L219.61-20.89Z M250.55-13.91L250.61 0.09L245.53 0.11L245.48-13.89Q245.47-14.89 244.96-15.40Q244.45-15.92 243.44-15.91L243.44-15.91L234.28-15.88L234.26-20.95L243.42-20.99Q244.14-20.99 244.94-20.83Q245.74-20.67 246.53-20.32Q247.33-19.97 248.05-19.42Q248.78-18.86 249.33-18.07Q249.88-17.29 250.21-16.25Q250.55-15.22 250.55-13.91L250.55-13.91ZM232.17-29.87L232.29 0.17L227.21 0.19L227.09-29.85L232.17-29.87Z M282.01-14.10L282.01-14.10Q282.02-13.05 281.65-11.83Q281.28-10.61 280.45-9.56Q279.62-8.51 278.29-7.81Q276.95-7.10 275.04-7.10L275.04-7.10L265.88-7.08L265.87-11.90L275.03-11.92Q276.06-11.92 276.63-12.56Q277.19-13.19 277.19-14.13L277.19-14.13Q277.19-15.13 276.55-15.69Q275.91-16.26 275.02-16.26L275.02-16.26L265.86-16.24Q264.82-16.23 264.26-15.60Q263.69-14.96 263.69-14.02L263.69-14.02L263.71-6.93Q263.71-5.92 264.35-5.35Q264.98-4.79 265.92-4.79L265.92-4.79L275.04-4.81L275.05 0.03L265.89 0.05Q264.84 0.06 263.62-0.31Q262.39-0.68 261.35-1.51Q260.30-2.34 259.59-3.67Q258.89-5.01 258.88-6.92L258.88-6.92L258.87-14.05Q258.87-15.11 259.23-16.33Q259.60-17.55 260.43-18.60Q261.26-19.64 262.60-20.35Q263.93-21.06 265.85-21.06L265.85-21.06L275.01-21.08Q276.06-21.08 277.28-20.71Q278.50-20.35 279.55-19.52Q280.60-18.69 281.30-17.35Q282.01-16.02 282.01-14.10Z M327.03-5.07L327.02 0.01L313.25 0.00Q312.20-0.00 310.95-0.37Q309.70-0.74 308.64-1.59Q307.57-2.44 306.86-3.80Q306.15-5.16 306.15-7.13L306.15-7.13L306.15-14.01Q306.15-14.73 306.32-15.53Q306.48-16.33 306.84-17.12Q307.19-17.91 307.74-18.63Q308.30-19.36 309.09-19.90Q309.88-20.45 310.92-20.78Q311.95-21.11 313.26-21.11L313.26-21.11L327.03-21.11L327.03-16.03L313.26-16.04Q312.27-16.04 311.75-15.53Q311.23-15.02 311.23-13.97L311.23-13.97L311.23-7.13Q311.23-6.13 311.75-5.61Q312.28-5.08 313.30-5.08L313.30-5.08L327.03-5.07Z M344.56-5.04L344.55 0.03L342.29 0.03Q341.19 0.03 339.95-0.34Q338.72-0.72 337.64-1.57Q336.57-2.42 335.87-3.78Q335.17-5.14 335.17-7.11L335.17-7.11L335.21-30.02L340.29-30.01L340.25-7.10Q340.25-6.16 340.83-5.61Q341.42-5.05 342.30-5.05L342.30-5.05L344.56-5.04Z M374.88-13.89L374.86-7.01Q374.85-5.70 374.52-4.66Q374.18-3.61 373.64-2.83Q373.09-2.04 372.36-1.48Q371.64-0.93 370.85-0.58Q370.05-0.23 369.24-0.07Q368.43 0.10 367.71 0.10L367.71 0.10L358.55 0.07Q357.49 0.07 356.24-0.31Q355.00-0.68 353.93-1.54Q352.87-2.39 352.16-3.75Q351.45-5.11 351.46-7.08L351.46-7.08L351.48-13.96Q351.49-15.91 352.20-17.27Q352.92-18.62 353.99-19.47Q355.06-20.31 356.31-20.68Q357.56-21.05 358.61-21.04L358.61-21.04L367.77-21.02Q369.73-21.01 371.09-20.30Q372.46-19.60 373.29-18.53Q374.13-17.46 374.51-16.21Q374.88-14.96 374.88-13.89L374.88-13.89ZM369.78-7.03L369.80-13.86Q369.80-14.92 369.28-15.43Q368.75-15.94 367.76-15.94L367.76-15.94L358.64-15.97Q357.62-15.97 357.09-15.45Q356.56-14.94 356.56-13.94L356.56-13.94L356.54-7.07Q356.54-6.07 357.06-5.54Q357.59-5.01 358.60-5.01L358.60-5.01L367.72-4.98Q368.76-4.98 369.27-5.50Q369.78-6.03 369.78-7.03L369.78-7.03Z M406.41-20.85L406.32-2.30Q406.32-1.75 406.12-1.28Q405.93-0.81 405.58-0.47Q405.24-0.13 404.78 0.06Q404.32 0.25 403.79 0.25L403.79 0.25L392.31 0.20Q391.37 0.19 390.31-0.03Q389.24-0.25 388.21-0.73Q387.18-1.22 386.21-1.95Q385.25-2.69 384.53-3.74Q383.82-4.79 383.38-6.16Q382.95-7.53 382.96-9.24L382.96-9.24L383.01-20.96L388.09-20.94L388.04-9.22Q388.03-8.22 388.37-7.43Q388.71-6.64 389.29-6.07Q389.87-5.50 390.66-5.19Q391.45-4.89 392.37-4.88L392.37-4.88L401.26-4.84L401.33-20.87L406.41-20.85Z M438.51-29.57L438.36-6.66Q438.35-5.35 438.01-4.31Q437.67-3.27 437.12-2.48Q436.57-1.69 435.84-1.14Q435.12-0.59 434.32-0.24Q433.53 0.11 432.72 0.27Q431.91 0.43 431.18 0.42L431.18 0.42L422.02 0.36Q420.72 0.35 419.68 0.01Q418.65-0.33 417.86-0.89Q417.07-1.45 416.52-2.18Q415.97-2.90 415.62-3.70Q415.28-4.49 415.12-5.30Q414.96-6.11 414.96-6.82L414.96-6.82L415.01-13.69Q415.02-15.64 415.74-17.00Q416.46-18.35 417.53-19.19Q418.60-20.03 419.86-20.40Q421.11-20.76 422.16-20.75L422.16-20.75L431.32-20.69L431.29-15.61L422.17-15.67Q421.15-15.68 420.62-15.17Q420.09-14.65 420.09-13.66L420.09-13.66L420.04-6.82Q420.03-5.79 420.55-5.26Q421.06-4.72 422.06-4.72L422.06-4.72L431.22-4.66Q432.25-4.65 432.76-5.17Q433.28-5.70 433.28-6.69L433.28-6.69L433.43-29.60L438.51-29.57Z M484.75-6.26L484.75-6.26Q484.73-4.95 484.39-3.91Q484.05-2.87 483.50-2.08Q482.94-1.29 482.21-0.74Q481.49-0.19 480.69 0.15Q479.90 0.49 479.09 0.65Q478.27 0.81 477.55 0.80L477.55 0.80L463.80 0.68L463.85-4.40L477.56-4.27Q478.60-4.26 479.13-4.79Q479.66-5.31 479.67-6.31L479.67-6.31Q479.59-8.34 477.64-8.36L477.64-8.36L469.77-8.43Q468.09-8.45 466.92-9.04Q465.75-9.64 465.03-10.52Q464.31-11.41 463.99-12.43Q463.68-13.45 463.69-14.33L463.69-14.33Q463.70-16.03 464.32-17.18Q464.94-18.34 465.86-19.05Q466.79-19.77 467.86-20.08Q468.94-20.39 469.88-20.38L469.88-20.38L482.36-20.27L482.31-15.19L469.87-15.30Q469.48-15.31 469.25-15.22Q469.03-15.14 468.92-14.99Q468.81-14.84 468.79-14.68Q468.77-14.51 468.77-14.36L468.77-14.36Q468.78-14.04 468.88-13.87Q468.98-13.69 469.12-13.61Q469.27-13.53 469.45-13.52Q469.64-13.51 469.81-13.51L469.81-13.51L477.69-13.43Q479.64-13.42 481.00-12.70Q482.36-11.98 483.19-10.91Q484.02-9.84 484.39-8.59Q484.76-7.33 484.75-6.26Z M497.75-29.03L497.71-24.44L492.63-24.50L492.68-29.09L497.75-29.03ZM497.66-20.11L497.44 1.01L492.36 0.95L492.58-20.16L497.66-20.11Z M525.38-12.68L525.21 1.32L520.13 1.26L520.30-12.74Q520.31-13.74 519.79-14.26Q519.27-14.78 518.23-14.80L518.23-14.80L511.63-14.88L511.44 1.16L506.36 1.10L506.59-17.50Q506.59-18.02 506.79-18.48Q506.99-18.94 507.35-19.27Q507.70-19.61 508.18-19.80Q508.65-19.99 509.17-19.98L509.17-19.98L518.33-19.87Q519.39-19.86 520.59-19.48Q521.80-19.09 522.88-18.26L522.88-18.26L522.90-19.82L529.78-19.74Q530.50-19.73 531.30-19.55Q532.10-19.38 532.88-19.01Q533.67-18.65 534.39-18.09Q535.10-17.52 535.64-16.73Q536.18-15.93 536.50-14.89Q536.82-13.85 536.80-12.54L536.80-12.54L536.63 1.46L531.55 1.40L531.72-12.60Q531.74-13.60 531.24-14.12Q530.75-14.65 529.72-14.66L529.72-14.66L525.15-14.71Q525.39-13.77 525.38-12.68L525.38-12.68Z M568.86-12.09L568.76-5.22Q568.74-3.91 568.39-2.87Q568.05-1.83 567.49-1.05Q566.93-0.27 566.20 0.28Q565.47 0.83 564.68 1.17Q563.88 1.51 563.08 1.66Q562.27 1.82 561.55 1.81L561.55 1.81L552.39 1.68L552.46-3.40L561.62-3.27Q562.64-3.26 563.15-3.78Q563.67-4.30 563.68-5.29L563.68-5.29L563.78-12.13Q563.79-13.18 563.28-13.70Q562.77-14.21 561.78-14.23L561.78-14.23L552.66-14.35Q551.62-14.37 551.09-13.86Q550.55-13.35 550.54-12.35L550.54-12.35L550.25 8.25L545.17 8.18L545.46-12.42Q545.48-13.73 545.83-14.76Q546.17-15.79 546.74-16.58Q547.31-17.36 548.04-17.91Q548.77-18.45 549.56-18.79Q550.36-19.13 551.17-19.29Q551.99-19.44 552.69-19.43L552.69-19.43L561.85-19.30Q563.16-19.29 564.19-18.94Q565.22-18.59 566.00-18.03Q566.78-17.48 567.33-16.75Q567.88-16.02 568.22-15.22Q568.56-14.42 568.71-13.62Q568.87-12.82 568.86-12.09L568.86-12.09Z M586.41-2.90L586.33 2.18L584.06 2.15Q582.97 2.13 581.73 1.74Q580.50 1.35 579.44 0.48Q578.38-0.38 577.69-1.75Q577.01-3.12 577.04-5.09L577.04-5.09L577.40-28.00L582.48-27.92L582.12-5.01Q582.11-4.08 582.68-3.51Q583.26-2.95 584.14-2.93L584.14-2.93L586.41-2.90Z M616.59-11.44L616.59-11.44Q616.57-10.39 616.18-9.17Q615.79-7.96 614.94-6.93Q614.09-5.90 612.74-5.22Q611.39-4.54 609.48-4.57L609.48-4.57L600.32-4.72L600.40-9.55L609.56-9.39Q610.60-9.38 611.17-10.00Q611.75-10.63 611.77-11.56L611.77-11.56Q611.78-12.56 611.16-13.14Q610.53-13.71 609.63-13.73L609.63-13.73L600.48-13.88Q599.44-13.90 598.86-13.27Q598.29-12.65 598.27-11.71L598.27-11.71L598.15-4.62Q598.13-3.61 598.76-3.03Q599.38-2.45 600.32-2.44L600.32-2.44L609.44-2.29L609.36 2.56L600.20 2.40Q599.15 2.39 597.93 1.99Q596.72 1.60 595.69 0.76Q594.66-0.09 593.98-1.44Q593.30-2.79 593.33-4.70L593.33-4.70L593.45-11.83Q593.47-12.89 593.86-14.10Q594.25-15.32 595.10-16.35Q595.94-17.38 597.29-18.06Q598.64-18.74 600.56-18.71L600.56-18.71L609.71-18.55Q610.77-18.53 611.98-18.14Q613.20-17.75 614.23-16.90Q615.26-16.06 615.94-14.71Q616.62-13.36 616.59-11.44Z"/></g>
</svg>
</g><g opacity="1" transform="rotate(0 346.4805 393.25)">
<svg width="388.1613" height="34.8026" x="346.4805" y="393.25" version="1.1" preserveAspectRatio="none" viewBox="2.7646 -31.4217 451.6236 40.4939">
  <g transform="matrix(1 0 0 1 0 0)" class="companyName"><path d="M22.15 0.82L13.10-10.10L9.38-6.15L9.43 0.93L2.99 0.98L2.76-27.02L9.20-27.07L9.31-13.99L21.60-27.17L28.80-27.23L17.31-14.66L29.71 0.76L22.15 0.82Z M39.83-4.59L51.87-4.68L51.91 0.60L30.75 0.76L30.72-3.44L41.45-13.72Q43.15-15.38 43.75-16.56Q44.34-17.74 44.33-18.90L44.33-18.90Q44.32-20.58 43.17-21.48Q42.02-22.37 39.82-22.35L39.82-22.35Q37.98-22.34 36.51-21.63Q35.03-20.92 34.04-19.51L34.04-19.51L29.30-22.51Q30.92-24.97 33.79-26.37Q36.66-27.77 40.38-27.80L40.38-27.80Q43.50-27.82 45.85-26.82Q48.20-25.81 49.51-23.96Q50.83-22.11 50.84-19.59L50.84-19.59Q50.86-17.31 49.91-15.30Q48.97-13.30 46.23-10.72L46.23-10.72L39.83-4.59Z M81.13 0.90Q76.85 0.93 73.38-0.91Q69.91-2.75 67.91-6.04Q65.91-9.33 65.89-13.49L65.89-13.49Q65.87-17.65 67.83-20.96Q69.79-24.27 73.24-26.15Q76.69-28.03 81.01-28.06L81.01-28.06Q84.65-28.08 87.59-26.82Q90.54-25.55 92.55-23.17L92.55-23.17L88.42-19.30Q85.56-22.57 81.36-22.54L81.36-22.54Q78.76-22.53 76.72-21.37Q74.69-20.22 73.56-18.18Q72.43-16.13 72.45-13.53L72.45-13.53Q72.46-10.93 73.62-8.90Q74.77-6.86 76.81-5.73Q78.86-4.61 81.46-4.62L81.46-4.62Q85.66-4.65 88.48-7.98L88.48-7.98L92.66-4.17Q90.68-1.71 87.73-0.42Q84.77 0.88 81.13 0.90L81.13 0.90Z M96.64 0.34L96.49-29.34L102.73-29.37L102.88 0.31L96.64 0.34Z M118.95 0.55Q115.55 0.57 112.85-0.84Q110.14-2.25 108.61-4.76Q107.08-7.28 107.07-10.48L107.07-10.48Q107.05-13.68 108.56-16.20Q110.07-18.73 112.76-20.16Q115.46-21.59 118.86-21.61L118.86-21.61Q122.26-21.62 124.94-20.21Q127.63-18.80 129.16-16.29Q130.69-13.78 130.70-10.58L130.70-10.58Q130.72-7.38 129.21-4.85Q127.70-2.32 125.03-0.89Q122.35 0.54 118.95 0.55L118.95 0.55ZM118.93-4.57Q121.33-4.58 122.86-6.20Q124.40-7.83 124.38-10.55L124.38-10.55Q124.37-13.27 122.83-14.88Q121.28-16.50 118.88-16.49L118.88-16.49Q116.48-16.48 114.93-14.85Q113.37-13.22 113.39-10.50L113.39-10.50Q113.40-7.78 114.96-6.17Q116.53-4.56 118.93-4.57L118.93-4.57Z M150.32-21.40L156.56-21.42L156.63 0.10L150.71 0.12L150.70-2.44Q149.47-1.04 147.75-0.29Q146.03 0.45 144.03 0.46L144.03 0.46Q139.79 0.47 137.31-1.96Q134.82-4.39 134.80-9.19L134.80-9.19L134.76-21.35L141.00-21.37L141.04-10.13Q141.06-4.93 145.42-4.95L145.42-4.95Q147.66-4.95 149.01-6.42Q150.37-7.88 150.36-10.76L150.36-10.76L150.32-21.40Z M178.09-29.63L184.33-29.64L184.39 0.04L178.43 0.05L178.43-2.43Q176.11 0.37 171.71 0.38L171.71 0.38Q168.67 0.39 166.21-0.97Q163.75-2.32 162.34-4.84Q160.94-7.35 160.93-10.67L160.93-10.67Q160.92-13.99 162.32-16.52Q163.71-19.04 166.17-20.41Q168.63-21.77 171.67-21.78L171.67-21.78Q175.79-21.79 178.11-19.19L178.11-19.19L178.09-29.63ZM172.78-4.74Q175.14-4.74 176.70-6.37Q178.26-7.99 178.25-10.71L178.25-10.71Q178.24-13.43 176.68-15.05Q175.12-16.66 172.76-16.66L172.76-16.66Q170.36-16.65 168.80-15.03Q167.24-13.41 167.25-10.69L167.25-10.69Q167.26-7.97 168.82-6.35Q170.38-4.73 172.78-4.74L172.78-4.74Z M208.41-5.19L223.65-5.20L223.66-0.00L201.98 0.01L201.96-27.99L223.12-28.00L223.12-22.80L208.40-22.79L208.41-16.71L221.41-16.72L221.41-11.68L208.41-11.67L208.41-5.19Z M241.51-21.84Q245.51-21.84 247.96-19.43Q250.42-17.03 250.42-12.31L250.42-12.31L250.42 0.01L244.18 0.00L244.18-11.36Q244.18-13.92 243.06-15.18Q241.94-16.44 239.82-16.44L239.82-16.44Q237.46-16.44 236.06-14.98Q234.66-13.52 234.66-10.64L234.66-10.64L234.66 0.00L228.42-0.00L228.43-21.52L234.39-21.52L234.38-19.00Q235.63-20.36 237.47-21.10Q239.31-21.84 241.51-21.84L241.51-21.84Z M272.65-21.48L278.57-21.47L278.54-3.55Q278.54 2.37 275.45 5.24Q272.37 8.12 266.45 8.11L266.45 8.11Q263.33 8.10 260.53 7.34Q257.73 6.57 255.89 5.13L255.89 5.13L258.38 0.66Q259.74 1.78 261.82 2.44Q263.89 3.10 265.97 3.11L265.97 3.11Q269.21 3.11 270.76 1.65Q272.30 0.20 272.30-2.76L272.30-2.76L272.30-3.68Q269.86-1.01 265.50-1.01L265.50-1.01Q262.54-1.02 260.08-2.32Q257.62-3.63 256.19-5.99Q254.75-8.35 254.76-11.43L254.76-11.43Q254.76-14.51 256.20-16.87Q257.65-19.23 260.11-20.52Q262.57-21.82 265.53-21.81L265.53-21.81Q270.21-21.81 272.65-18.72L272.65-18.72L272.65-21.48ZM266.75-6.13Q269.23-6.13 270.81-7.59Q272.39-9.04 272.40-11.40L272.40-11.40Q272.40-13.76 270.82-15.23Q269.24-16.69 266.76-16.69L266.76-16.69Q264.28-16.70 262.68-15.24Q261.08-13.78 261.08-11.42L261.08-11.42Q261.07-9.06 262.67-7.60Q264.27-6.14 266.75-6.13L266.75-6.13Z M284.37 0.06L284.42-21.46L290.66-21.45L290.61 0.07L284.37 0.06ZM287.55-24.45Q285.83-24.46 284.75-25.46Q283.67-26.46 283.67-27.94L283.67-27.94Q283.68-29.42 284.76-30.42Q285.84-31.42 287.56-31.41L287.56-31.41Q289.28-31.41 290.36-30.45Q291.44-29.48 291.44-28.04L291.44-28.04Q291.43-26.48 290.35-25.47Q289.27-24.45 287.55-24.45L287.55-24.45Z M309.59-21.71Q313.59-21.70 316.04-19.29Q318.49-16.89 318.48-12.17L318.48-12.17L318.44 0.15L312.20 0.13L312.24-11.23Q312.24-13.79 311.13-15.05Q310.01-16.31 307.89-16.32L307.89-16.32Q305.53-16.33 304.13-14.87Q302.72-13.41 302.71-10.53L302.71-10.53L302.68 0.11L296.44 0.09L296.51-21.43L302.47-21.42L302.46-18.90Q303.70-20.25 305.55-20.99Q307.39-21.72 309.59-21.71L309.59-21.71Z M345.49-10.42Q345.49-10.30 345.36-8.74L345.36-8.74L329.08-8.81Q329.51-6.80 331.15-5.64Q332.78-4.47 335.22-4.46L335.22-4.46Q336.90-4.45 338.20-4.95Q339.51-5.44 340.63-6.52L340.63-6.52L343.94-2.90Q340.88 0.56 335.04 0.54L335.04 0.54Q331.40 0.52 328.61-0.91Q325.81-2.34 324.30-4.86Q322.79-7.39 322.81-10.59L322.81-10.59Q322.82-13.75 324.33-16.28Q325.84-18.82 328.47-20.23Q331.09-21.64 334.33-21.62L334.33-21.62Q337.49-21.61 340.05-20.24Q342.60-18.87 344.05-16.32Q345.50-13.78 345.49-10.42L345.49-10.42ZM334.35-16.90Q332.23-16.91 330.79-15.72Q329.34-14.52 329.01-12.45L329.01-12.45L339.61-12.40Q339.30-14.44 337.87-15.67Q336.43-16.90 334.35-16.90L334.35-16.90Z M370.78-10.29Q370.78-10.17 370.65-8.61L370.65-8.61L354.37-8.69Q354.80-6.69 356.43-5.52Q358.07-4.36 360.51-4.34L360.51-4.34Q362.19-4.34 363.49-4.83Q364.79-5.32 365.92-6.40L365.92-6.40L369.22-2.78Q366.16 0.69 360.32 0.66L360.32 0.66Q356.68 0.64 353.89-0.80Q351.09-2.23 349.59-4.76Q348.08-7.29 348.10-10.49L348.10-10.49Q348.11-13.65 349.63-16.18Q351.14-18.71 353.77-20.12Q356.39-21.52 359.63-21.51L359.63-21.51Q362.79-21.49 365.35-20.12Q367.90-18.75 369.35-16.20Q370.79-13.65 370.78-10.29L370.78-10.29ZM359.65-16.79Q357.53-16.80 356.08-15.61Q354.64-14.41 354.31-12.34L354.31-12.34L364.91-12.28Q364.60-14.32 363.16-15.55Q361.73-16.78 359.65-16.79L359.65-16.79Z M380.99-18.23Q382.12-19.78 384.02-20.57Q385.92-21.36 388.40-21.35L388.40-21.35L388.37-15.59Q387.33-15.67 386.97-15.68L386.97-15.68Q384.29-15.69 382.76-14.20Q381.23-12.71 381.22-9.71L381.22-9.71L381.16 0.45L374.92 0.41L375.04-21.11L381.00-21.07L380.99-18.23Z M392.02 0.52L392.16-21.00L398.40-20.96L398.26 0.56L392.02 0.52ZM395.29-23.98Q393.57-23.99 392.50-25.00Q391.43-26.01 391.44-27.49L391.44-27.49Q391.45-28.97 392.53-29.96Q393.62-30.95 395.34-30.94L395.34-30.94Q397.06-30.93 398.13-29.96Q399.21-29.00 399.20-27.56L399.20-27.56Q399.19-26.00 398.10-24.99Q397.01-23.97 395.29-23.98L395.29-23.98Z M417.32-21.15Q421.32-21.12 423.77-18.71Q426.21-16.29 426.18-11.57L426.18-11.57L426.09 0.75L419.85 0.71L419.93-10.65Q419.95-13.21 418.84-14.48Q417.73-15.75 415.61-15.76L415.61-15.76Q413.25-15.78 411.84-14.33Q410.42-12.88 410.40-10.00L410.40-10.00L410.33 0.64L404.09 0.59L404.24-20.93L410.20-20.88L410.18-18.36Q411.43-19.71 413.28-20.44Q415.12-21.17 417.32-21.15L417.32-21.15Z M448.47-20.59L454.39-20.54L454.24-2.62Q454.19 3.30 451.08 6.16Q447.98 9.01 442.06 8.96L442.06 8.96Q438.94 8.94 436.15 8.15Q433.35 7.37 431.53 5.91L431.53 5.91L434.04 1.45Q435.39 2.59 437.47 3.26Q439.54 3.94 441.62 3.96L441.62 3.96Q444.86 3.98 446.41 2.54Q447.97 1.09 447.99-1.87L447.99-1.87L448.00-2.79Q445.54-0.13 441.18-0.17L441.18-0.17Q438.22-0.19 435.77-1.51Q433.32-2.83 431.90-5.20Q430.48-7.57 430.50-10.65L430.50-10.65Q430.53-13.73 431.99-16.08Q433.45-18.43 435.92-19.71Q438.39-20.99 441.35-20.97L441.35-20.97Q446.03-20.93 448.44-17.83L448.44-17.83L448.47-20.59ZM442.46-5.28Q444.94-5.26 446.53-6.70Q448.12-8.15 448.14-10.51L448.14-10.51Q448.16-12.87 446.59-14.34Q445.03-15.81 442.55-15.84L442.55-15.84Q440.07-15.86 438.45-14.41Q436.84-12.96 436.82-10.60L436.82-10.60Q436.80-8.24 438.39-6.77Q439.98-5.30 442.46-5.28L442.46-5.28Z"/></g>
</svg>
</g><g opacity="0.2" transform="rotate(0 330.173 366.25)">
<svg width="4" height="116" x="330.173" y="366.25" version="1.1" preserveAspectRatio="none" viewBox="0 0 4 116">
  <rect x="0" y="0" width="4" height="116" class="companyName shapeStroke-str" style="stroke-width:0;" rx="0px" ry="0px" />
</svg>
</g></svg>